<svg xmlns="http://www.w3.org/2000/svg" width="29.952" height="29.204" viewBox="0 0 29.952 29.204">
  <path id="github-brands" d="M10.018,31.515c0,.121-.139.217-.314.217-.2.018-.338-.079-.338-.217,0-.121.139-.217.314-.217C9.861,31.279,10.018,31.376,10.018,31.515ZM8.14,31.243c-.042.121.079.26.26.3a.283.283,0,0,0,.374-.121c.036-.121-.079-.26-.26-.314a.31.31,0,0,0-.374.139Zm2.669-.1c-.175.042-.3.157-.278.3.018.121.175.2.356.157s.3-.157.278-.278S10.984,31.122,10.809,31.14ZM14.783,8A14.48,14.48,0,0,0,0,22.735,15.14,15.14,0,0,0,10.236,37.179c.773.139,1.045-.338,1.045-.731,0-.374-.018-2.44-.018-3.708,0,0-4.227.906-5.115-1.8,0,0-.688-1.757-1.679-2.21,0,0-1.383-.948.1-.93A3.188,3.188,0,0,1,6.9,29.359a3.192,3.192,0,0,0,4.4,1.262,3.356,3.356,0,0,1,.966-2.035c-3.376-.374-6.782-.864-6.782-6.673a4.577,4.577,0,0,1,1.425-3.557,5.705,5.705,0,0,1,.157-4.1c1.262-.393,4.167,1.63,4.167,1.63a14.266,14.266,0,0,1,7.585,0s2.9-2.029,4.167-1.63a5.7,5.7,0,0,1,.157,4.1A4.694,4.694,0,0,1,24.7,21.913c0,5.827-3.557,6.292-6.932,6.673a3.571,3.571,0,0,1,1.027,2.8c0,2.035-.018,4.553-.018,5.048,0,.393.278.87,1.045.731A15,15,0,0,0,29.952,22.735C29.952,14.359,23.159,8,14.783,8ZM5.87,28.828c-.079.06-.06.2.042.314.1.1.236.139.314.06.079-.06.06-.2-.042-.314C6.087,28.791,5.948,28.749,5.87,28.828Zm-.652-.489c-.042.079.018.175.139.236a.18.18,0,0,0,.26-.042c.042-.079-.018-.175-.139-.236C5.356,28.26,5.26,28.278,5.217,28.338Zm1.957,2.15c-.1.079-.06.26.079.374.139.139.314.157.393.06.079-.079.042-.26-.079-.374C7.434,30.41,7.253,30.392,7.174,30.488ZM6.486,29.6c-.1.06-.1.217,0,.356s.26.2.338.139a.275.275,0,0,0,0-.374c-.085-.139-.242-.2-.338-.121Z" transform="translate(0 -8)" fill="#5a5a5a"/>
</svg>
