<svg xmlns="http://www.w3.org/2000/svg" width="154.541" height="28.809" viewBox="0 0 154.541 28.809">
  <g id="Logo" transform="translate(-489 -67.373)">
    <path id="Path_97" data-name="Path 97" d="M6.588,24.22h8.154V28H1.35V24.49l8.1-11.664H1.35V9.046H14.742v3.51Zm11.286-3.78a9,9,0,0,1,.877-4.077,6.545,6.545,0,0,1,2.39-2.7,6.238,6.238,0,0,1,3.375-.945,5.8,5.8,0,0,1,2.795.648,4.773,4.773,0,0,1,1.849,1.7V12.934h4.617V28H29.16V25.867a4.986,4.986,0,0,1-1.876,1.7,5.8,5.8,0,0,1-2.795.648,6.126,6.126,0,0,1-3.348-.958,6.623,6.623,0,0,1-2.39-2.727A9.09,9.09,0,0,1,17.874,20.44Zm11.286.027A3.775,3.775,0,0,0,28.2,17.74a3.245,3.245,0,0,0-4.671-.013,3.727,3.727,0,0,0-.958,2.713,3.823,3.823,0,0,0,.958,2.74,3.215,3.215,0,0,0,4.671.014A3.775,3.775,0,0,0,29.16,20.467Zm28.215-7.695a5.958,5.958,0,0,1,4.468,1.7A6.477,6.477,0,0,1,63.5,19.2V28h-4.59V19.819a3.113,3.113,0,0,0-.77-2.255,3.218,3.218,0,0,0-4.239,0,3.113,3.113,0,0,0-.77,2.255V28h-4.59V19.819a3.113,3.113,0,0,0-.77-2.255,3.218,3.218,0,0,0-4.239,0,3.113,3.113,0,0,0-.77,2.255V28H38.151V12.934h4.617v1.89a4.942,4.942,0,0,1,1.836-1.5,5.772,5.772,0,0,1,2.565-.554,6.239,6.239,0,0,1,3.037.729A5.226,5.226,0,0,1,52.3,15.58a6.069,6.069,0,0,1,2.133-2.025A5.763,5.763,0,0,1,57.375,12.772Zm15.012,2.3a5.012,5.012,0,0,1,1.863-1.7,5.719,5.719,0,0,1,2.781-.648,6.238,6.238,0,0,1,3.375.945,6.545,6.545,0,0,1,2.39,2.7,9,9,0,0,1,.878,4.077,9.09,9.09,0,0,1-.878,4.09,6.623,6.623,0,0,1-2.39,2.727,6.173,6.173,0,0,1-3.375.958,5.739,5.739,0,0,1-2.767-.648,5.074,5.074,0,0,1-1.877-1.674v9.288H67.77V12.934h4.617Zm6.588,5.373a3.727,3.727,0,0,0-.958-2.713,3.166,3.166,0,0,0-2.363-.986,3.114,3.114,0,0,0-2.335,1,3.775,3.775,0,0,0-.959,2.727,3.775,3.775,0,0,0,.959,2.727A3.23,3.23,0,0,0,78,23.181,3.792,3.792,0,0,0,78.975,20.44Zm22.356-.216a11.786,11.786,0,0,1-.081,1.35H90.8a3.14,3.14,0,0,0,.9,2.147,2.763,2.763,0,0,0,1.957.742,2.426,2.426,0,0,0,2.4-1.458h4.914a6.743,6.743,0,0,1-1.364,2.673,6.827,6.827,0,0,1-2.47,1.863,7.935,7.935,0,0,1-3.321.675,8.081,8.081,0,0,1-3.942-.945,6.722,6.722,0,0,1-2.7-2.7,8.336,8.336,0,0,1-.972-4.1,8.43,8.43,0,0,1,.959-4.1,6.635,6.635,0,0,1,2.687-2.7,8.138,8.138,0,0,1,3.969-.945,8.056,8.056,0,0,1,3.888.918,6.592,6.592,0,0,1,2.66,2.619A7.949,7.949,0,0,1,101.331,20.224Zm-4.725-1.215a2.374,2.374,0,0,0-.81-1.89,2.982,2.982,0,0,0-2.025-.7,2.924,2.924,0,0,0-1.958.675,3,3,0,0,0-.985,1.917ZM109.4,8.02V28h-4.617V8.02Zm8.991,0V28h-4.617V8.02Zm6.7,3.348a2.8,2.8,0,0,1-1.985-.715,2.318,2.318,0,0,1-.77-1.768,2.349,2.349,0,0,1,.77-1.8,2.8,2.8,0,0,1,1.985-.715,2.761,2.761,0,0,1,1.957.715,2.349,2.349,0,0,1,.77,1.8,2.318,2.318,0,0,1-.77,1.768A2.761,2.761,0,0,1,125.091,11.368Zm2.295,1.566V28h-4.617V12.934Zm6.534,15.282a2.8,2.8,0,0,1-1.984-.715,2.318,2.318,0,0,1-.77-1.768,2.391,2.391,0,0,1,.77-1.809,2.768,2.768,0,0,1,1.984-.729,2.732,2.732,0,0,1,1.958.729,2.391,2.391,0,0,1,.77,1.809,2.318,2.318,0,0,1-.77,1.768A2.762,2.762,0,0,1,133.92,28.216Z" transform="translate(506.894 61)" fill="#2f2c2c"/>
    <path id="iconfinder_arrow-right-01_186409" d="M21.321,12.139,13.734,4.553a1.794,1.794,0,0,0-2.529,0l-.633.633a1.793,1.793,0,0,0,0,2.528l5.788,5.79-5.789,5.789a1.793,1.793,0,0,0,0,2.528l.633.633a1.793,1.793,0,0,0,2.529,0l7.587-7.587a1.773,1.773,0,0,0,.512-1.364A1.772,1.772,0,0,0,21.321,12.139Z" transform="translate(478.949 64.969)" fill="#2f2c2c"/>
  </g>
</svg>
