<svg xmlns="http://www.w3.org/2000/svg" width="223.894" height="41" viewBox="0 0 223.894 41">
  <g id="Logo" transform="translate(-489 -61)">
    <text id="Zampelli." transform="translate(506.894 61)" fill="#2f2c2c" font-size="27" font-family="Poppins-Bold, Poppins" font-weight="700" letter-spacing="0.038em"><tspan x="0" y="28">Zampelli.</tspan></text>
    <path id="iconfinder_arrow-right-01_186409" d="M21.321,12.139,13.734,4.553a1.794,1.794,0,0,0-2.529,0l-.633.633a1.793,1.793,0,0,0,0,2.528l5.788,5.79-5.789,5.789a1.793,1.793,0,0,0,0,2.528l.633.633a1.793,1.793,0,0,0,2.529,0l7.587-7.587a1.773,1.773,0,0,0,.512-1.364A1.772,1.772,0,0,0,21.321,12.139Z" transform="translate(478.949 64.969)" fill="#2f2c2c"/>
  </g>
</svg>
